<?xml version="1.0" encoding="UTF-8" standalone="no"?>
<!DOCTYPE svg PUBLIC "-//W3C//DTD SVG 1.1//EN" "http://www.w3.org/Graphics/SVG/1.1/DTD/svg11.dtd">
<svg width="100%" height="100%" viewBox="0 0 189 177" version="1.1" xmlns="http://www.w3.org/2000/svg" xmlns:xlink="http://www.w3.org/1999/xlink" xml:space="preserve" xmlns:serif="http://www.serif.com/" style="fill-rule:evenodd;clip-rule:evenodd;stroke-linejoin:round;stroke-miterlimit:2;">
    <g transform="matrix(1,0,0,1,-1299.333248,-2977.250808)">
        <g transform="matrix(5.10747,0,0,2.664767,-1371.873392,1827.240063)">
            <path d="M558.243,448.95C559.334,450.223 560,452.495 560,454.943L560,485.001C560,486.874 559.453,488.589 558.584,489.444C547.191,500.53 535.799,500.651 524.408,489.443C523.545,488.586 523.004,486.879 523.004,485.017C523,478.38 523,462.392 523,454.943C523,452.495 523.666,450.223 524.757,448.95L538.091,433.394C540.185,430.951 542.815,430.951 544.909,433.394L558.243,448.95ZM530.058,477.029C533.861,483.57 537.691,486.775 541.494,486.802C545.304,486.829 549.142,483.674 552.952,477.012C553.635,475.817 553.684,473.784 553.06,472.474C552.437,471.165 551.376,471.071 550.693,472.266C547.621,477.638 544.578,480.4 541.506,480.378C538.427,480.356 535.376,477.545 532.297,472.248C531.608,471.065 530.548,471.174 529.93,472.494C529.313,473.813 529.37,475.845 530.058,477.029Z" style="fill:rgb(80,38,217);"/>
        </g>
    </g>
</svg>
